# Made using Asset Forge (www.assetforge.io) version 0.1 

mtllib billboardLower.mtl 

g billboardLower

v 0.6380007 1.862 0.4
v 0.6380007 1.862 0.719
v 0.9570006 1.862 0.4
v 0.9570009 1.862 0.719
v 0.9570005 -0.3000006 0.7190001
v 0.6380004 -0.3000006 0.719
v 0.9570003 0 0.4
v 0.9570003 -0.3000006 0.4
v 0.6380004 4.72297E-08 0.4
v 0.6380004 -0.3000006 0.4
v 4.362 -0.3000011 0.719
v 4.362 1.862 0.719
v 4.042999 -0.3000011 0.719
v 4.043 1.862 0.719
v 4.043 1.862 0.3999999
v 4.362 1.862 0.3999999
v 4.362 2.175159E-07 0.3999999
v 4.362 -0.3000011 0.3999999
v 4.042999 2.647456E-07 0.3999999
v 4.042999 -0.3000011 0.3999999
v 0 1.350743E-07 0
v 0 1.350743E-07 0.4
v 0 2.5 2.707168E-14
v 0 2.5 0.4
v 5 2.5 2.707168E-14
v 5 2.5 0.4
v 5 1.350743E-07 0
v 5 1.350743E-07 0.4

vn 0 1 0
vn 0 -1 0
vn 0 0 1
vn 0 0 -1
vn 1 0 -6.921027E-07
vn -1 0 6.921027E-07
vn -1 0 0
vn 1 0 0

vt -2.511813 1.574803
vt -2.511813 2.830709
vt -3.767718 1.574803
vt -3.767719 2.830709
vt 3.767719 -1.181105
vt 3.76772 7.330708
vt 2.511812 -1.181105
vt 2.511814 7.330708
vt -1.574806 7.330708
vt -2.830711 7.330708
vt -1.574806 5.521892E-07
vt -1.574806 -1.181104
vt -2.830711 -1.181104
vt 1.574803 7.330708
vt 1.574803 5.5407E-07
vt 2.830709 7.330708
vt 1.574803 -1.181104
vt 2.830709 -1.181104
vt 17.17323 -1.181107
vt 17.17323 7.330709
vt 15.91732 -1.181107
vt 15.91732 7.330709
vt -15.91732 1.574803
vt -15.91732 2.830709
vt -17.17323 1.574803
vt -17.17323 2.830709
vt -1.574815 7.330711
vt -2.83072 7.330711
vt -1.574815 3.373236E-06
vt -1.574815 -1.181104
vt -2.83072 -1.181104
vt 1.574803 7.330711
vt 1.574803 3.375117E-06
vt 2.830709 7.330711
vt 1.574803 -1.181104
vt 2.830709 -1.181104
vt 0 5.317888E-07
vt 1.574803 5.317887E-07
vt 1.065814E-13 9.84252
vt 1.574803 9.84252
vt 0 -4.884982E-14
vt 0 1.574803
vt -19.68504 -4.884982E-14
vt -19.68504 1.574803
vt 1.051491E-14 1.574803
vt 1.051491E-14 -2.394415E-15
vt 2.511812 1.574803
vt 19.68504 -6.41895E-16
vt 3.767718 1.574803
vt 15.91732 1.574803
vt 17.17323 1.574803
vt 19.68504 1.574803
vt -1.065814E-13 9.84252
vt -1.574803 5.317887E-07
vt -1.574803 9.84252
vt 2.511812 1.804787E-07
vt -1.510984E-08 5.263238E-07
vt -1.510984E-08 9.84252
vt 15.91732 7.330709
vt 19.68504 9.84252
vt 17.17323 7.330709
vt 17.17323 8.508971E-07
vt 19.68504 5.263238E-07
vt 3.767719 7.330708
vt 15.91732 1.036841E-06
vt 3.767718 -5.464962E-09
vt -1 1
vt 2.165734E-15 1
vt -1 2
vt 2.165734E-15 2

usemtl grey
usemap grey

f 1/1/1 2/2/1 3/3/1
f 4/4/1 3/3/1 2/2/1
f 3/3/2 2/2/2 1/1/2
f 2/2/2 3/3/2 4/4/2
f 5/5/3 4/6/3 6/7/3
f 2/8/3 6/7/3 4/6/3
f 6/7/4 4/6/4 5/5/4
f 4/6/4 6/7/4 2/8/4
f 3/9/5 4/10/5 7/11/5
f 8/12/5 7/11/5 4/10/5
f 5/13/5 8/12/5 4/10/5
f 7/11/6 4/10/6 3/9/6
f 4/10/6 7/11/6 8/12/6
f 4/10/6 8/12/6 5/13/6
f 1/14/7 9/15/7 2/16/7
f 10/17/7 2/16/7 9/15/7
f 6/18/7 2/16/7 10/17/7
f 2/16/8 9/15/8 1/14/8
f 9/15/8 2/16/8 10/17/8
f 10/17/8 2/16/8 6/18/8
f 11/19/3 12/20/3 13/21/3
f 14/22/3 13/21/3 12/20/3
f 13/21/4 12/20/4 11/19/4
f 12/20/4 13/21/4 14/22/4
f 15/23/1 14/24/1 16/25/1
f 12/26/1 16/25/1 14/24/1
f 16/25/2 14/24/2 15/23/2
f 14/24/2 16/25/2 12/26/2
f 16/27/5 12/28/5 17/29/5
f 18/30/5 17/29/5 12/28/5
f 11/31/5 18/30/5 12/28/5
f 17/29/6 12/28/6 16/27/6
f 12/28/6 17/29/6 18/30/6
f 12/28/6 18/30/6 11/31/6
f 15/32/7 19/33/7 14/34/7
f 20/35/7 14/34/7 19/33/7
f 13/36/7 14/34/7 20/35/7
f 14/34/8 19/33/8 15/32/8
f 19/33/8 14/34/8 20/35/8
f 20/35/8 14/34/8 13/36/8

usemtl road
usemap road

f 21/37/7 22/38/7 23/39/7
f 24/40/7 23/39/7 22/38/7
f 23/41/1 24/42/1 25/43/1
f 26/44/1 25/43/1 24/42/1
f 22/45/2 21/46/2 9/47/2
f 27/48/2 9/47/2 21/46/2
f 7/49/2 9/47/2 27/48/2
f 19/50/2 7/49/2 27/48/2
f 17/51/2 19/50/2 27/48/2
f 28/52/2 17/51/2 27/48/2
f 27/37/8 25/53/8 28/54/8
f 26/55/8 28/54/8 25/53/8

usemtl bark
usemap bark

f 9/56/3 1/8/3 22/57/3
f 24/58/3 22/57/3 1/8/3
f 15/59/3 24/58/3 1/8/3
f 24/58/3 15/59/3 26/60/3
f 15/59/3 16/61/3 26/60/3
f 16/61/3 17/62/3 26/60/3
f 28/63/3 26/60/3 17/62/3
f 1/8/3 3/64/3 15/59/3
f 15/59/3 3/64/3 19/65/3
f 7/66/3 19/65/3 3/64/3

usemtl tankco
usemap tankco

f 27/67/4 21/68/4 25/69/4
f 23/70/4 25/69/4 21/68/4

usemtl _defaultMat
usemap _defaultMat

f 6/36/2 10/34/2 5/35/2
f 8/36/2 5/34/2 10/35/2
f 8/36/4 10/34/4 7/35/4
f 9/36/4 7/34/4 10/35/4
f 13/36/2 20/34/2 11/35/2
f 18/36/2 11/34/2 20/35/2
f 18/36/4 20/34/4 17/35/4
f 19/36/4 17/34/4 20/35/4
