# Made using Asset Forge (www.assetforge.io) version 0.1 

mtllib grandStandCovered.mtl 

g grandStandCovered

v 0 0 10
v 0 0 0
v 10 0 10
v 10 0 0
v 10 2.090008 0
v 10 7.462626 5.960322
v 10 10.36263 5.960322
v 10 11.06263 10
v 10 11.66263 -0.2
v 10 11.26263 -0.2
v 0 11.06263 10
v 9.456866 0.5431337 0
v 9.456866 1.546874 0
v 0.5431337 1.546874 0
v 0.5431337 0.5431337 0
v 0 2.090008 0
v 0 11.66263 -0.2
v 0 11.26263 -0.2
v 0 10.36263 5.960322
v 0 7.462626 5.960322
v 0.5431337 2.453656 0.4034276
v 9.456866 2.453656 0.4034276
v 9.456866 7.462626 5.960322
v 9.456866 6.518312 4.912711
v 9.456866 5.937647 4.268528
v 9.456866 5.356982 3.624344
v 9.456866 4.776317 2.980161
v 9.456866 4.195652 2.335978
v 9.456866 3.614986 1.691794
v 9.456866 3.034321 1.047611
v 0.5431337 7.462626 5.960322
v 0.5431337 3.034321 1.047611
v 0.5431337 3.614986 1.691794
v 0.5431337 4.195652 2.335978
v 0.5431337 4.776317 2.980161
v 0.5431337 5.356982 3.624344
v 0.5431337 5.937647 4.268528
v 0.5431337 6.518312 4.912711
v 0.5431337 10.36263 5.260322
v 0.5431337 10.36263 5.960322
v 9.456866 10.36263 5.260322
v 9.456866 10.36263 5.960322
v 0.5431337 8.789017 5.960322
v 9.456866 8.789017 5.960322
v 9.456866 6.518312 6.460322
v 7.817089 6.518312 6.460322
v 9.456866 8.789017 6.460322
v 7.817089 8.158089 6.460322
v 2.182911 8.158089 6.460322
v 0.5431337 8.789017 6.460322
v 2.182911 6.518312 6.460322
v 0.5431337 6.518312 6.460322
v 9.028285 8.789017 6.460322
v 0.9717145 8.789017 6.460322
v 9.456866 8.789017 5.260322
v 9.028285 8.789017 5.260322
v 9.028285 9.970855 5.260322
v 0.9717145 9.970855 5.260322
v 0.5431337 8.789017 5.260322
v 0.9717145 8.789017 5.260322
v 1.662355 11.86392 1.486879
v 1.662355 11.4603 8.348353
v 8.337645 11.86392 1.486879
v 8.337645 11.4603 8.348353
v 1.332258 11.14086 8.67004
v 8.667742 11.14086 8.67004
v 1.332258 11.58439 1.129959
v 8.667742 11.58439 1.129959
v 9.456866 5.356982 4.268528
v 0.5431337 2.453656 1.047611
v 9.456866 2.453656 1.047611
v 0.5431337 4.776317 3.624344
v 0.5431337 5.937647 4.912711
v 0.5431337 3.614986 2.335978
v 0.5431337 3.034321 1.691794
v 0.5431337 4.195652 2.980161
v 0.5431337 5.356982 4.268528
v 9.456866 3.034321 1.691794
v 9.456866 4.776317 3.624344
v 9.456866 3.614986 2.335978
v 9.456866 5.937647 4.912711
v 9.456866 4.195652 2.980161
v 7.817089 8.158089 8.760322
v 7.817089 6.518312 8.760322
v 2.182911 8.158089 8.760322
v 2.182911 6.518312 8.760322

vn 0 -1 0
vn 1 0 0
vn 0 0 1
vn 0 0 -1
vn -1 0 0
vn 0 0.7427778 -0.669538
vn 0 1 0
vn 0 -0.9894958 -0.1445616
vn 0 0.9982744 0.05872202
vn 0 0.7095792 0.7046256
vn -0.6725648 0.7387612 0.04345654
vn 0 0.7872969 -0.616574
vn 0.6725648 0.7387612 0.04345654

vt 0 39.37008
vt 0 0
vt 39.37008 39.37008
vt 39.37008 0
vt -4.928817E-14 -8.926829E-14
vt -4.928817E-14 8.228376
vt -39.37008 -8.926829E-14
vt -23.46584 29.38042
vt -23.46584 40.79774
vt -39.37008 43.55365
vt 0.7874016 45.91585
vt 0.7874016 44.34105
vt 0 43.55365
vt 39.37008 43.55365
vt -37.23176 2.138322
vt -39.37008 0
vt -39.37008 8.228376
vt -37.23176 6.090055
vt -2.138322 6.090055
vt -2.138322 2.138322
vt 0 8.228376
vt -0.7874016 45.91585
vt -0.7874016 44.34105
vt 23.46584 40.79774
vt 23.46584 29.38042
vt 1.363641E-15 37.10121
vt -2.138322 7.647532
vt -4.930381E-32 5.509211
vt -39.37008 5.509211
vt -37.23176 7.647532
vt -37.23176 37.10121
vt -39.37008 37.10121
vt -37.23176 31.54847
vt -37.23176 28.13405
vt -37.23176 24.71963
vt -37.23176 21.30521
vt -37.23176 17.89079
vt -37.23176 14.47637
vt -37.23176 11.06195
vt -2.138322 37.10121
vt -2.138322 11.06195
vt -2.138322 14.47637
vt -2.138322 17.89079
vt -2.138322 21.30521
vt -2.138322 24.71963
vt -2.138322 28.13405
vt -2.138322 31.54847
vt -2.138322 20.70993
vt -2.138322 23.46584
vt -37.23176 20.70993
vt -37.23176 23.46584
vt -2.138322 29.38042
vt 0 29.38042
vt -2.138322 34.60243
vt 0 40.79774
vt -2.138322 40.79774
vt -39.37008 29.38042
vt -37.23176 29.38042
vt -39.37008 40.79774
vt -37.23176 34.60243
vt -37.23176 40.79774
vt -37.23176 25.66265
vt -30.77594 25.66265
vt -30.77594 32.11846
vt -8.594137 32.11846
vt -8.594137 25.66265
vt -2.138322 25.66265
vt -35.54443 34.60243
vt -3.825648 34.60243
vt -35.54443 39.25533
vt -3.825648 39.25533
vt -20.70993 34.60243
vt -20.70993 40.79774
vt -23.46584 34.60243
vt 4.870527E-16 -17.32156
vt -1.634317E-17 7.189145
vt -2.138322 -17.32156
vt -39.37008 7.189145
vt -37.23176 -17.32156
vt -39.37008 -17.32156
vt -39.37008 44.34105
vt 0 44.34105
vt -39.37008 45.91585
vt 0 45.91585
vt 6.544704 -3.100947
vt 6.544704 -30.16132
vt 32.82537 -3.100947
vt 32.82537 -30.16132
vt 5.245111 6.68525
vt 34.12497 6.68525
vt 6.544704 8.470089
vt 32.82537 8.470089
vt 4.777599 34.39311
vt 34.40119 31.80219
vt 6.263669 36.02596
vt 33.22113 33.66821
vt -5.245111 31.62303
vt -6.544704 33.40787
vt -34.12497 31.62303
vt -32.82537 33.40787
vt -3.725137 7.001392
vt -30.6826 4.643651
vt -2.239067 5.368545
vt -31.86266 2.777622
vt -30.77594 25.43434
vt -8.594137 34.48946
vt -30.77594 34.48946
vt -37.23176 23.37656
vt -2.138322 23.37656
vt -2.138322 16.80523
vt -2.138322 19.34138
vt -37.23176 16.80523
vt -37.23176 19.34138
vt -37.23176 21.09048
vt -2.138322 21.09048
vt -2.138322 14.26907
vt -37.23176 14.26907
vt -37.23176 18.8044
vt -2.138322 18.8044
vt -2.138322 11.73292
vt -37.23176 11.73292
vt -37.23176 16.51831
vt -2.138322 16.51831
vt -2.138322 9.196763
vt -37.23176 9.196763
vt -37.23176 14.23223
vt -2.138322 14.23223
vt -2.138322 6.660608
vt -37.23176 6.660608
vt -37.23176 11.94615
vt -2.138322 11.94615
vt -2.138322 4.124453
vt -37.23176 4.124453
vt -37.23176 9.660064
vt -2.138322 9.660064
vt -2.138322 25.43434
vt -8.594137 25.43434
vt -37.23176 25.43434
vt 0 -36.74458
vt 5.245111 -1.762796
vt 0 3.482314
vt 39.37008 3.482314
vt 34.12497 -1.762796
vt 34.12497 -31.49947
vt 5.245111 -31.49947
vt 39.37008 -36.74458
vt 3.825648 25.43434
vt 3.825648 20.70993
vt 35.54443 25.43434
vt 35.54443 20.70993

usemtl grey
usemap grey

f 1/1/1 2/2/1 3/3/1
f 4/4/1 3/3/1 2/2/1
f 4/5/2 5/6/2 3/7/2
f 6/8/2 3/7/2 5/6/2
f 7/9/2 3/7/2 6/8/2
f 3/7/2 7/9/2 8/10/2
f 8/10/2 7/9/2 9/11/2
f 10/12/2 9/11/2 7/9/2
f 1/2/3 3/4/3 11/13/3
f 8/14/3 11/13/3 3/4/3
f 2/2/4 12/15/4 4/16/4
f 5/17/4 4/16/4 12/15/4
f 13/18/4 5/17/4 12/15/4
f 14/19/4 5/17/4 13/18/4
f 12/15/4 2/2/4 15/20/4
f 16/21/4 15/20/4 2/2/4
f 14/19/4 15/20/4 16/21/4
f 5/17/4 14/19/4 16/21/4
f 17/22/5 18/23/5 11/14/5
f 19/24/5 11/14/5 18/23/5
f 20/25/5 11/14/5 19/24/5
f 11/14/5 20/25/5 1/4/5
f 1/4/5 20/25/5 2/2/5
f 16/21/5 2/2/5 20/25/5
f 20/26/6 21/27/6 16/28/6
f 5/29/6 16/28/6 21/27/6
f 22/30/6 5/29/6 21/27/6
f 23/31/6 5/29/6 22/30/6
f 6/32/6 5/29/6 23/31/6
f 23/31/6 22/30/6 24/33/6
f 24/33/6 22/30/6 25/34/6
f 25/34/6 22/30/6 26/35/6
f 26/35/6 22/30/6 27/36/6
f 27/36/6 22/30/6 28/37/6
f 28/37/6 22/30/6 29/38/6
f 30/39/6 29/38/6 22/30/6
f 20/26/6 31/40/6 21/27/6
f 32/41/6 21/27/6 31/40/6
f 33/42/6 32/41/6 31/40/6
f 34/43/6 33/42/6 31/40/6
f 35/44/6 34/43/6 31/40/6
f 36/45/6 35/44/6 31/40/6
f 37/46/6 36/45/6 31/40/6
f 38/47/6 37/46/6 31/40/6
f 39/48/7 40/49/7 41/50/7
f 42/51/7 41/50/7 40/49/7
f 31/52/4 20/53/4 43/54/4
f 19/55/4 43/54/4 20/53/4
f 40/56/4 43/54/4 19/55/4
f 6/57/4 23/58/4 7/59/4
f 44/60/4 7/59/4 23/58/4
f 42/61/4 7/59/4 44/60/4
f 45/62/4 46/63/4 47/60/4
f 48/64/4 47/60/4 46/63/4
f 49/65/4 47/60/4 48/64/4
f 47/60/4 49/65/4 50/54/4
f 49/65/4 51/66/4 50/54/4
f 52/67/4 50/54/4 51/66/4
f 53/68/4 47/60/4 50/54/4
f 54/69/4 53/68/4 50/54/4
f 55/60/4 56/68/4 41/61/4
f 57/70/4 41/61/4 56/68/4
f 58/71/4 41/61/4 57/70/4
f 41/61/4 58/71/4 39/56/4
f 39/56/4 58/71/4 59/54/4
f 60/69/4 59/54/4 58/71/4
f 55/72/2 41/73/2 44/74/2
f 42/9/2 44/74/2 41/73/2
f 19/75/8 18/76/8 40/77/8
f 10/78/8 40/77/8 18/76/8
f 42/79/8 40/77/8 10/78/8
f 7/80/8 42/79/8 10/78/8
f 10/81/4 18/82/4 9/83/4
f 17/84/4 9/83/4 18/82/4
f 61/85/9 62/86/9 63/87/9
f 64/88/9 63/87/9 62/86/9
f 65/89/10 66/90/10 62/91/10
f 64/92/10 62/91/10 66/90/10
f 67/93/11 65/94/11 61/95/11
f 62/96/11 61/95/11 65/94/11
f 67/97/12 61/98/12 68/99/12
f 63/100/12 68/99/12 61/98/12
f 63/101/13 64/102/13 68/103/13
f 66/104/13 68/103/13 64/102/13

usemtl _defaultMat
usemap _defaultMat

f 25/14/5 26/25/5 69/4/5
f 21/14/7 70/25/7 22/4/7
f 71/14/7 22/25/7 70/4/7
f 72/14/2 35/25/2 36/4/2
f 73/14/2 37/25/2 38/4/2
f 74/14/2 33/25/2 34/4/2
f 70/14/2 21/25/2 32/4/2
f 75/14/2 32/25/2 33/4/2
f 76/14/2 34/25/2 35/4/2
f 77/14/2 36/25/2 37/4/2
f 29/105/5 30/106/5 78/107/5
f 30/105/5 22/106/5 71/107/5
f 26/105/5 27/106/5 79/107/5
f 28/105/5 29/106/5 80/107/5
f 24/105/5 25/106/5 81/107/5
f 27/105/5 28/106/5 82/107/5
f 44/105/5 23/106/5 47/107/5
f 24/105/5 45/106/5 23/107/5
f 47/105/5 23/106/5 45/107/5
f 48/65/5 46/64/5 83/66/5
f 84/65/5 83/64/5 46/66/5
f 85/65/1 49/64/1 83/66/1
f 48/65/1 83/64/1 49/66/1
f 51/65/2 49/64/2 86/66/2
f 85/65/2 86/64/2 49/66/2
f 38/69/2 31/68/2 52/54/2
f 43/69/2 52/68/2 31/54/2
f 50/69/2 52/68/2 43/54/2
f 50/19/1 43/18/1 54/20/1
f 59/19/1 54/18/1 43/20/1
f 60/19/1 54/18/1 59/20/1
f 53/19/1 56/18/1 47/20/1
f 55/19/1 47/18/1 56/20/1
f 44/19/1 47/18/1 55/20/1
f 39/9/5 59/74/5 40/73/5
f 43/9/5 40/74/5 59/73/5

usemtl red
usemap red

f 81/108/4 73/109/4 24/62/4
f 38/67/4 24/62/4 73/109/4
f 37/110/7 73/111/7 25/112/7
f 81/113/7 25/112/7 73/111/7
f 69/114/4 77/115/4 25/108/4
f 37/109/4 25/108/4 77/115/4
f 36/116/7 77/110/7 26/117/7
f 69/112/7 26/117/7 77/110/7
f 79/118/4 72/119/4 26/114/4
f 36/115/4 26/114/4 72/119/4
f 35/120/7 72/116/7 27/121/7
f 79/117/7 27/121/7 72/116/7
f 82/122/4 76/123/4 27/118/4
f 35/119/4 27/118/4 76/123/4
f 34/124/7 76/120/7 28/125/7
f 82/121/7 28/125/7 76/120/7
f 80/126/4 74/127/4 28/122/4
f 34/123/4 28/122/4 74/127/4
f 33/128/7 74/124/7 29/129/7
f 80/125/7 29/129/7 74/124/7
f 78/130/4 75/131/4 29/126/4
f 33/127/4 29/126/4 75/131/4
f 32/132/7 75/128/7 30/133/7
f 78/129/7 30/133/7 75/128/7
f 71/134/4 70/135/4 30/130/4
f 32/131/4 30/130/4 70/135/4
f 38/111/7 52/136/7 24/113/7
f 51/137/7 24/113/7 52/136/7
f 86/106/7 24/113/7 51/137/7
f 46/105/7 24/113/7 86/106/7
f 45/138/7 24/113/7 46/105/7
f 46/105/7 86/106/7 84/107/7

usemtl road
usemap road

f 84/63/4 86/66/4 83/64/4
f 85/65/4 83/64/4 86/66/4
f 12/15/4 15/20/4 13/18/4
f 14/19/4 13/18/4 15/20/4
f 11/139/9 67/140/9 17/141/9
f 9/142/9 17/141/9 67/140/9
f 68/143/9 9/142/9 67/140/9
f 66/144/9 9/142/9 68/143/9
f 67/140/9 11/139/9 65/145/9
f 8/146/9 65/145/9 11/139/9
f 66/144/9 65/145/9 8/146/9
f 9/142/9 66/144/9 8/146/9

usemtl glass
usemap glass

f 56/68/4 60/69/4 57/70/4
f 58/71/4 57/70/4 60/69/4
f 54/147/1 60/148/1 53/149/1
f 56/150/1 53/149/1 60/148/1
