# Made using Asset Forge (www.assetforge.io) version 0.1 

mtllib overhead.mtl 

g overhead

v -1.3 0 -1.263345E-14
v 0 0 0
v -1.3 5.382 -1.263345E-14
v 0 5.382 0
v -1.288878 5.551684 -1.082867E-14
v 11.28888 5.551684 8.301981E-14
v 11.2557 5.718465 8.121504E-14
v -1.255704 5.718465 -1.082867E-14
v 11.20104 5.879488 8.121504E-14
v -1.201043 5.879488 -1.082867E-14
v 11.12583 6.032 7.941025E-14
v -1.125833 6.032 -9.023893E-15
v 11.03136 6.173389 8.121504E-14
v -1.031359 6.173389 -9.023893E-15
v 10.91924 6.301239 8.121504E-14
v -0.9192389 6.301239 -7.219114E-15
v 10.79139 6.41336 7.941025E-14
v -0.7913899 6.41336 -7.219114E-15
v 10.65 6.507833 7.760548E-14
v -0.65 6.507833 -5.414336E-15
v 10.49749 6.583043 7.760548E-14
v -0.4974884 6.583043 -5.414336E-15
v 10.33646 6.637703 7.58007E-14
v -0.3364648 6.637703 -3.609557E-15
v 10.16969 6.670878 7.399592E-14
v -0.1696841 6.670878 -1.804779E-15
v 10 6.682 7.399592E-14
v 0 6.682 0
v -1.3 0 -1.9
v -1.3 5.382 -1.3
v -1.288878 5.551684 -1.3
v -1.255704 5.718465 -1.3
v 10 1.986321E-31 7.58007E-14
v 11.3 1.986321E-31 8.482459E-14
v 10 5.382 7.58007E-14
v 11.3 5.382 8.482459E-14
v 11.2557 5.718465 -1.3
v 11.20104 5.879488 -1.3
v 1.443823E-14 0 -1.9
v 1.443823E-14 5.382 -1.3
v 11.3 0 -1.9
v 10 0 -1.9
v 11.3 5.382 -1.3
v 10 5.382 -1.3
v -0.1696841 6.670878 -1.3
v 1.443823E-14 6.682 -1.3
v 10.49749 6.583043 -1.3
v 10.65 6.507833 -1.3
v 11.28888 5.551684 -1.3
v 10.91924 6.301239 -1.3
v 11.03136 6.173389 -1.3
v -1.201043 5.879488 -1.3
v -1.125833 6.032 -1.3
v 10 6.682 -1.3
v 11.12583 6.032 -1.3
v 10.79139 6.41336 -1.3
v 10.33646 6.637703 -1.3
v 10.16969 6.670878 -1.3
v -1.031359 6.173389 -1.3
v -0.9192389 6.301239 -1.3
v -0.7913899 6.41336 -1.3
v -0.65 6.507833 -1.3
v -0.4974884 6.583043 -1.3
v -0.3364648 6.637703 -1.3

vn 0 0 1
vn -1 0 0
vn -0.9914449 0.1305262 0
vn -0.9978589 0.06540313 0
vn -0.9659258 0.258819 0
vn 0.9659258 0.258819 0
vn 0.9238795 0.3826834 0
vn 1 0 0
vn 0 0.1107963 -0.9938431
vn -0.1305262 0.9914449 0
vn -0.06540313 0.9978589 0
vn 0.3826834 0.9238795 0
vn 0.5 0.8660254 0
vn 0.9978589 0.06540313 0
vn 0.9914449 0.1305262 0
vn 0.7071068 0.7071068 0
vn 0.7933533 0.6087614 0
vn 0 -1 0
vn -0.9238795 0.3826834 0
vn -0.8660254 0.5 0
vn 0 0 -1
vn 0.8660254 0.5 0
vn 0.258819 0.9659258 0
vn 0.06540313 0.9978589 0
vn 0.1305262 0.9914449 0
vn 0.6087614 0.7933533 0
vn -0.5 0.8660254 0
vn -0.3826834 0.9238795 0
vn -0.7071068 0.7071068 0
vn -0.6087614 0.7933533 0
vn -0.7933533 0.6087614 0
vn 0 1 0
vn -0.258819 0.9659258 0

vt -5.11811 0
vt 0 0
vt -5.11811 21.18898
vt 0 21.18898
vt -5.074324 21.85702
vt 44.4444 21.85702
vt 44.31379 22.51364
vt -4.943715 22.51364
vt 44.09859 23.14759
vt -4.728517 23.14759
vt 43.80249 23.74803
vt -4.432414 23.74803
vt 43.43055 24.30468
vt -4.06047 24.30468
vt 42.98913 24.80803
vt -3.619051 24.80803
vt 42.48579 25.24945
vt -3.115708 25.24945
vt 41.92913 25.62139
vt -2.559055 25.62139
vt 41.32869 25.91749
vt -1.958616 25.91749
vt 40.69474 26.13269
vt -1.324664 26.13269
vt 40.03813 26.2633
vt -0.6680474 26.2633
vt 39.37008 26.30709
vt 0 26.30709
vt -7.480315 -2.486997E-15
vt -5.12127E-15 -2.486997E-15
vt -5.12127E-15 21.18898
vt -5.11811 21.47835
vt -5.11811 20.80887
vt 1.372383E-14 21.47835
vt 7.1047E-15 20.80887
vt -5.11811 21.11658
vt -5.11811 20.4471
vt 1.22706E-14 21.11658
vt 1.37211E-14 20.4471
vt 39.37008 7.820162E-31
vt 44.48819 7.820162E-31
vt 39.37008 21.18898
vt 44.48819 21.18898
vt 5.11811 7.074643
vt 5.11811 7.744123
vt 1.725185E-13 7.074643
vt 1.701279E-13 7.744123
vt 7.480315 -4.065037E-30
vt 5.11811 21.18898
vt -44.48819 -0.8287915
vt -39.37008 -0.8287915
vt -44.48819 20.49145
vt -39.37008 20.49145
vt 3.139827E-16 1.051085
vt 0 1.720566
vt -5.11811 1.051085
vt -5.11811 1.720566
vt 1.536154E-13 -25.60357
vt 1.602861E-13 -26.27305
vt 5.11811 -25.60357
vt 5.11811 -26.27305
vt 5.11811 18.23394
vt 5.11811 18.90342
vt 1.601451E-13 18.23394
vt 1.667643E-13 18.90342
vt 5.11811 -9.69304
vt 1.57624E-13 -9.69304
vt 5.11811 -10.36252
vt 1.625257E-13 -10.36252
vt -5.11811 -4.973799E-14
vt -5.11811 -7.480315
vt 5.684342E-14 -7.480315
vt -5.11811 18.66908
vt 9.870593E-15 18.66908
vt -5.11811 19.33856
vt 1.368823E-14 19.33856
vt -44.48819 21.18898
vt -39.37008 21.18898
vt -44.4444 21.85702
vt -39.37008 26.30709
vt -44.31379 22.51364
vt -44.09859 23.14759
vt -43.80249 23.74803
vt -43.43055 24.30468
vt -42.98913 24.80803
vt -42.48579 25.24945
vt -41.92913 25.62139
vt -41.32869 25.91749
vt -40.69474 26.13269
vt -40.03813 26.2633
vt -1.680378E-14 21.18898
vt -1.680378E-14 26.30709
vt 5.074324 21.85702
vt 4.943715 22.51364
vt 4.728517 23.14759
vt 4.432414 23.74803
vt 4.06047 24.30468
vt 3.619051 24.80803
vt 3.115708 25.24945
vt 2.559055 25.62139
vt 1.958616 25.91749
vt 1.324664 26.13269
vt 0.6680474 26.2633
vt 5.11811 1.925615
vt 1.737215E-13 1.925615
vt 5.11811 1.256134
vt 1.699039E-13 1.256134
vt -7.480315 1.913074E-14
vt -4.47776E-14 1.913074E-14
vt -4.47776E-14 21.18898
vt 39.37008 2.984279E-13
vt 39.37008 -7.480315
vt 44.48819 3.339551E-13
vt 44.48819 -7.480315
vt -7.648282E-15 -8.411123E-29
vt 4.919514E-14 -5.11811
vt 39.37008 -5.11811
vt 44.48819 -5.11811
vt 1.533665E-13 -30.135
vt 1.532992E-13 -30.80448
vt 5.11811 -30.135
vt 5.11811 -30.80448
vt -5.11811 19.72974
vt 1.227723E-14 19.72974
vt -5.11811 20.39922
vt 9.887035E-15 20.39922
vt 1.460112E-13 -37.56522
vt 1.534321E-13 -38.2347
vt 5.11811 -37.56522
vt 5.11811 -38.2347
vt 1.529624E-13 -34.14509
vt 1.531431E-13 -34.81457
vt 5.11811 -34.14509
vt 5.11811 -34.81457
vt 1.591275E-13 -15.29439
vt 1.576113E-13 -15.96387
vt 5.11811 -15.29439
vt 5.11811 -15.96387
vt 7.10166E-15 9.036904
vt 4.338692E-16 9.706385
vt -5.11811 9.036904
vt -5.11811 9.706385
vt 7.480315 2.161774E-14
vt 5.386718E-14 2.161774E-14
vt 5.386718E-14 21.18898
vt 1.176513E-14 13.63612
vt 6.175895E-15 14.3056
vt -5.11811 13.63612
vt -5.11811 14.3056
vt 6.175057E-15 11.43722
vt 7.09942E-15 12.1067
vt -5.11811 11.43722
vt -5.11811 12.1067
vt -5.11811 17.95273
vt -5.11811 17.28325
vt 9.561649E-15 17.95273
vt 1.369183E-14 17.28325
vt 1.602283E-13 -20.62832
vt 1.593063E-13 -21.2978
vt 5.11811 -20.62832
vt 5.11811 -21.2978
vt 2.233585E-16 -0.8287915
vt 5.11811 -0.8287915
vt -1.779773E-14 20.49145
vt 5.11811 20.49145
vt 5.11811 -4.973799E-14
vt 5.11811 -5.11811
vt -5.684342E-14 -5.11811
vt -5.11811 15.59598
vt 9.59265E-15 15.59598
vt -5.11811 16.26546
vt 1.179304E-14 16.26546
vt 5.11811 12.76637
vt 5.11811 13.43585
vt 1.66756E-13 12.76637
vt 1.724109E-13 13.43585
vt -39.37008 2.913225E-13
vt -39.37008 -5.11811
vt 4.957078E-16 3.799024
vt 3.113051E-16 4.468504
vt -5.11811 3.799024
vt -5.11811 4.468504
vt 5.11811 -4.589594
vt 5.11811 -3.920113
vt 1.738462E-13 -4.589594
vt 1.626098E-13 -3.920113
vt 4.283402E-16 6.476233
vt 4.956152E-16 7.145714
vt -5.11811 6.476233
vt -5.11811 7.145714

usemtl grey
usemap grey

f 1/1/1 2/2/1 3/3/1
f 4/4/1 3/3/1 2/2/1
f 3/3/1 4/4/1 5/5/1
f 6/6/1 5/5/1 4/4/1
f 7/7/1 5/5/1 6/6/1
f 8/8/1 5/5/1 7/7/1
f 9/9/1 8/8/1 7/7/1
f 10/10/1 8/8/1 9/9/1
f 11/11/1 10/10/1 9/9/1
f 12/12/1 10/10/1 11/11/1
f 13/13/1 12/12/1 11/11/1
f 14/14/1 12/12/1 13/13/1
f 15/15/1 14/14/1 13/13/1
f 16/16/1 14/14/1 15/15/1
f 17/17/1 16/16/1 15/15/1
f 18/18/1 16/16/1 17/17/1
f 19/19/1 18/18/1 17/17/1
f 20/20/1 18/18/1 19/19/1
f 21/21/1 20/20/1 19/19/1
f 22/22/1 20/20/1 21/21/1
f 23/23/1 22/22/1 21/21/1
f 24/24/1 22/22/1 23/23/1
f 25/25/1 24/24/1 23/23/1
f 26/26/1 24/24/1 25/25/1
f 27/27/1 26/26/1 25/25/1
f 28/28/1 26/26/1 27/27/1
f 29/29/2 1/30/2 30/3/2
f 3/31/2 30/3/2 1/30/2
f 31/32/3 30/33/4 5/34/3
f 3/35/4 5/34/3 30/33/4
f 32/36/5 31/37/3 8/38/5
f 5/39/3 8/38/5 31/37/3
f 33/40/1 34/41/1 35/42/1
f 36/43/1 35/42/1 34/41/1
f 35/42/1 36/43/1 4/4/1
f 6/6/1 4/4/1 36/43/1
f 37/44/6 38/45/7 7/46/6
f 9/47/7 7/46/6 38/45/7
f 39/48/8 40/49/8 2/2/8
f 4/4/8 2/2/8 40/49/8
f 41/50/9 42/51/9 43/52/9
f 44/53/9 43/52/9 42/51/9
f 26/54/10 28/55/11 45/56/10
f 46/57/11 45/56/10 28/55/11
f 21/58/12 19/59/13 47/60/12
f 48/61/13 47/60/12 19/59/13
f 43/62/14 49/63/15 36/64/14
f 6/65/15 36/64/14 49/63/15
f 50/66/16 15/67/16 51/68/17
f 13/69/17 51/68/17 15/67/16
f 1/70/18 29/71/18 2/2/18
f 39/72/18 2/2/18 29/71/18
f 52/73/19 10/74/19 53/75/20
f 12/76/20 53/75/20 10/74/19
f 43/77/21 44/78/21 49/79/21
f 54/80/21 49/79/21 44/78/21
f 37/81/21 49/79/21 54/80/21
f 38/82/21 37/81/21 54/80/21
f 55/83/21 38/82/21 54/80/21
f 51/84/21 55/83/21 54/80/21
f 50/85/21 51/84/21 54/80/21
f 56/86/21 50/85/21 54/80/21
f 48/87/21 56/86/21 54/80/21
f 47/88/21 48/87/21 54/80/21
f 57/89/21 47/88/21 54/80/21
f 58/90/21 57/89/21 54/80/21
f 44/78/21 40/91/21 54/80/21
f 46/92/21 54/80/21 40/91/21
f 40/91/21 30/49/21 46/92/21
f 31/93/21 46/92/21 30/49/21
f 32/94/21 46/92/21 31/93/21
f 52/95/21 46/92/21 32/94/21
f 53/96/21 46/92/21 52/95/21
f 59/97/21 46/92/21 53/96/21
f 60/98/21 46/92/21 59/97/21
f 61/99/21 46/92/21 60/98/21
f 62/100/21 46/92/21 61/99/21
f 63/101/21 46/92/21 62/100/21
f 64/102/21 46/92/21 63/101/21
f 45/103/21 46/92/21 64/102/21
f 55/104/22 11/105/22 38/106/7
f 9/107/7 38/106/7 11/105/22
f 42/108/2 33/109/2 44/3/2
f 35/110/2 44/3/2 33/109/2
f 33/111/18 42/112/18 34/113/18
f 41/114/18 34/113/18 42/112/18
f 4/115/18 40/116/18 35/111/18
f 44/117/18 35/111/18 40/116/18
f 35/111/18 44/117/18 36/113/18
f 43/118/18 36/113/18 44/117/18
f 23/119/23 21/120/12 57/121/23
f 47/122/12 57/121/23 21/120/12
f 32/123/5 8/124/5 52/125/19
f 10/126/19 52/125/19 8/124/5
f 27/127/24 25/128/25 54/129/24
f 58/130/25 54/129/24 25/128/25
f 25/131/25 23/132/23 58/133/25
f 57/134/23 58/133/25 23/132/23
f 17/135/26 15/136/16 56/137/26
f 50/138/16 56/137/26 15/136/16
f 20/139/27 22/140/28 62/141/27
f 63/142/28 62/141/27 22/140/28
f 41/143/8 43/49/8 34/144/8
f 36/145/8 34/144/8 43/49/8
f 16/146/29 18/147/30 60/148/29
f 61/149/30 60/148/29 18/147/30
f 18/150/30 20/151/27 61/152/30
f 62/153/27 61/152/30 20/151/27
f 59/154/31 53/155/20 14/156/31
f 12/157/20 14/156/31 53/155/20
f 19/158/13 17/159/26 48/160/13
f 56/161/26 48/160/13 17/159/26
f 39/162/9 29/163/9 40/164/9
f 30/165/9 40/164/9 29/163/9
f 3/166/32 4/2/32 30/167/32
f 40/168/32 30/167/32 4/2/32
f 59/169/31 14/170/31 60/171/29
f 16/172/29 60/171/29 14/170/31
f 49/173/15 37/174/6 6/175/15
f 7/176/6 6/175/15 37/174/6
f 28/2/32 27/177/32 46/168/32
f 54/178/32 46/168/32 27/177/32
f 24/179/33 26/180/10 64/181/33
f 45/182/10 64/181/33 26/180/10
f 55/183/22 51/184/17 11/185/22
f 13/186/17 11/185/22 51/184/17
f 22/187/28 24/188/33 63/189/28
f 64/190/33 63/189/28 24/188/33
