# Made using Asset Forge (www.assetforge.io) version 0.1 

mtllib pitsGarage.mtl 

g pitsGarage

v 6.276479E-11 5.438118 -0.8999999
v 2.279796E-10 5.438118 -0.3999999
v 6.276479E-11 7 -0.8999999
v 0 7 10
v 2.279796E-10 4.359281 -0.3999999
v 0 3.951664 5.491057E-08
v 0 0 5.554275E-08
v 0 0 10
v 10 0 10
v 10 7 10
v 10 4.359281 -0.3999999
v 10 5.438118 -0.3999999
v 10 3.951664 5.554274E-08
v 10 7 -0.8999999
v 10 5.438118 -0.8999999
v 10 0 5.554275E-08
v 5.424182 0.09999999 5.554275E-08
v 5.424182 0.2 0.848364
v 9.151636 0.09999999 0
v 9.151636 0.2 0.848364
v 0.8483639 0.09999999 5.554275E-08
v 0.8483639 0.2 0.848364
v 4.575818 0.09999999 1.804779E-15
v 4.575818 0.2 0.848364
v 5.424182 1.37099 1.605982E-08
v 5.424182 4.495708 5.554275E-08
v 5.424182 1.37099 0.848364
v 5.424182 4.495708 0.848364
v 0.8483639 0.2 9.099999
v 9.151636 0.2 9.099999
v 4.575818 1.37099 1.605982E-08
v 4.575818 1.37099 0.848364
v 4.575818 4.495708 5.554275E-08
v 4.575818 4.495708 0.848364
v 0.8483639 3.951664 5.554275E-08
v 0.8483639 4.495708 5.554275E-08
v 0.8483639 4.495708 9.099999
v 0.8483639 5.438118 5.328983E-08
v 0.8483639 4.359281 -0.3999999
v 0.8483639 5.438118 -0.3999999
v 9.151636 3.951664 5.329213E-08
v 9.151636 4.495708 5.554275E-08
v 9.151636 4.495708 9.099999
v 9.151636 5.438118 5.542443E-08
v 9.151636 4.359281 -0.3999999
v 9.151636 5.438118 -0.3999999

vn -1 0 0
vn 0 0 1
vn 1 0 0
vn 0 1 0
vn 0 0.9931244 -0.1170635
vn 0 -1 0
vn 0 0 -1
vn 0 -0.7004071 -0.7137436

vt -3.543307 21.40991
vt -1.574803 21.40991
vt -3.543307 27.55906
vt 39.37008 27.55906
vt -1.574803 17.16252
vt 2.161834E-07 15.55773
vt 2.186723E-07 1.579013E-29
vt 39.37008 2.842879E-21
vt 0 0
vt 39.37008 0
vt 0 27.55906
vt 1.574803 17.16252
vt 1.574803 21.40991
vt -2.185615E-07 15.55773
vt -39.37008 27.55906
vt 3.543307 27.55906
vt 3.543307 21.40991
vt -2.185615E-07 1.87255E-10
vt -39.37008 1.87255E-10
vt 0 39.37008
vt -39.37008 39.37008
vt -2.471054E-10 -3.543307
vt -39.37008 -3.543307
vt -21.35505 0.04608836
vt -21.35505 3.409227
vt -36.03006 0.04608825
vt -36.03006 3.409228
vt -3.340016 0.04608823
vt -3.340016 3.409227
vt -18.01503 0.04608812
vt -18.01503 3.409227
vt -6.322761E-08 5.397598
vt -2.186722E-07 17.69964
vt -3.340016 5.397598
vt -3.340016 17.69964
vt -3.340016 3.340016
vt -3.340016 35.82677
vt -18.01503 3.340016
vt -36.03006 35.82677
vt -21.35505 3.340016
vt -36.03006 3.340016
vt 6.322762E-08 5.397598
vt 3.340016 5.397598
vt 2.186722E-07 17.69964
vt 3.340016 17.69964
vt -2.186723E-07 0.3937008
vt -2.186723E-07 15.55773
vt -3.340016 0.7874016
vt -2.186723E-07 17.69964
vt -35.82677 17.69964
vt -35.82677 0.7874016
vt -2.078988E-07 21.40991
vt 1.574803 17.16252
vt 1.574803 21.40991
vt 0 0.3937008
vt 3.340016 0.7874016
vt 2.098116E-07 15.55773
vt 2.186723E-07 17.69964
vt 35.82677 17.69964
vt 35.82677 0.7874016
vt 2.154447E-07 21.40991
vt -1.574803 17.16252
vt -1.574803 21.40991
vt 3.340016 35.82677
vt 3.340016 2.186723E-07
vt 36.03006 35.82677
vt 18.01503 3.340016
vt 21.35505 3.340016
vt 21.35505 2.186723E-07
vt 36.03006 2.186723E-07
vt 18.01503 2.186723E-07
vt 18.01503 5.397598
vt 21.35505 5.397598
vt 18.01503 17.69964
vt 21.35505 17.69964
vt -36.03006 0.7874016
vt -3.340016 0.7874016
vt -36.03006 17.69964
vt -3.340016 17.69964
vt 3.340016 1.999941E-07
vt 3.340016 -1.574803
vt 36.03006 2.083981E-07
vt 36.03006 -1.574803
vt 39.37008 -3.543307
vt 6.699094E-10 -1.574803
vt 1.945719E-11 -3.543307
vt 39.37008 -1.574803
vt -39.37008 17.16252
vt -36.03006 17.16252
vt -39.37008 21.40991
vt -36.03006 21.40991
vt -21.35505 17.69964
vt -18.01503 17.69964
vt -3.340016 21.40991
vt -18.01503 5.397598
vt -21.35505 5.397598
vt -3.340016 17.16252
vt -1.236286E-14 17.16252
vt -1.236286E-14 21.40991
vt -36.03006 0.3937008
vt -18.01503 0.3937008
vt -21.35505 0.3937008
vt 2.753884E-16 9.788205E-16
vt -39.37008 1.200756E-15
vt -39.37008 15.55773
vt -36.03006 15.55773
vt -3.340016 0.3937008
vt 2.72254E-16 15.55773
vt -3.340016 15.55773
vt 2.159106E-07 17.69964
vt 2.070499E-07 15.55773
vt -2.167686E-07 17.69964
vt -2.167686E-07 15.55773
vt 6.322765E-08 5.397598
vt 1.997447 1.181283
vt 3.997448 1.181282
vt 1.997447 1.806037
vt 3.997448 1.806036
vt -2.186722E-07 0.3937008
vt 18.01503 0.7874016
vt 21.35505 0.7874016
vt 7.105427E-15 0.3937008

usemtl grey
usemap grey

f 1/1/1 2/2/1 3/3/1
f 4/4/1 3/3/1 2/2/1
f 5/5/1 4/4/1 2/2/1
f 6/6/1 4/4/1 5/5/1
f 7/7/1 4/4/1 6/6/1
f 8/8/1 4/4/1 7/7/1
f 8/9/2 9/10/2 4/11/2
f 10/4/2 4/11/2 9/10/2
f 11/12/3 12/13/3 13/14/3
f 13/14/3 12/13/3 10/15/3
f 10/15/3 12/13/3 14/16/3
f 15/17/3 14/16/3 12/13/3
f 16/18/3 13/14/3 10/15/3
f 9/19/3 16/18/3 10/15/3
f 4/20/4 10/21/4 3/22/4
f 14/23/4 3/22/4 10/21/4
f 17/24/5 18/25/5 19/26/5
f 20/27/5 19/26/5 18/25/5
f 21/28/5 22/29/5 23/30/5
f 24/31/5 23/30/5 22/29/5
f 25/32/3 26/33/3 27/34/3
f 28/35/3 27/34/3 26/33/3
f 22/36/4 29/37/4 24/38/4
f 30/39/4 24/38/4 29/37/4
f 18/40/4 24/38/4 30/39/4
f 20/41/4 18/40/4 30/39/4
f 31/42/1 32/43/1 33/44/1
f 34/45/1 33/44/1 32/43/1
f 21/46/3 35/47/3 22/48/3
f 36/49/3 22/48/3 35/47/3
f 37/50/3 22/48/3 36/49/3
f 29/51/3 22/48/3 37/50/3
f 36/49/3 35/47/3 38/52/3
f 35/47/3 39/53/3 38/52/3
f 40/54/3 38/52/3 39/53/3
f 19/55/1 20/56/1 41/57/1
f 42/58/1 41/57/1 20/56/1
f 43/59/1 42/58/1 20/56/1
f 30/60/1 43/59/1 20/56/1
f 42/58/1 44/61/1 41/57/1
f 41/57/1 44/61/1 45/62/1
f 46/63/1 45/62/1 44/61/1
f 37/64/6 36/65/6 43/66/6
f 34/67/6 43/66/6 36/65/6
f 28/68/6 43/66/6 34/67/6
f 26/69/6 43/66/6 28/68/6
f 42/70/6 43/66/6 26/69/6
f 34/67/6 36/65/6 33/71/6
f 32/72/2 27/73/2 34/74/2
f 28/75/2 34/74/2 27/73/2
f 30/76/7 29/77/7 43/78/7
f 37/79/7 43/78/7 29/77/7
f 38/80/6 40/81/6 44/82/6
f 44/82/6 40/81/6 46/83/6
f 46/83/6 40/81/6 15/84/6
f 40/81/6 2/85/6 15/84/6
f 1/86/6 15/84/6 2/85/6
f 12/87/6 46/83/6 15/84/6
f 11/88/7 45/89/7 12/90/7
f 46/91/7 12/90/7 45/89/7
f 42/78/7 26/92/7 44/91/7
f 33/93/7 44/91/7 26/92/7
f 36/79/7 44/91/7 33/93/7
f 38/94/7 44/91/7 36/79/7
f 33/93/7 26/92/7 31/95/7
f 25/96/7 31/95/7 26/92/7
f 39/97/7 5/98/7 40/94/7
f 2/99/7 40/94/7 5/98/7
f 19/100/7 23/101/7 17/102/7
f 23/101/7 19/100/7 7/103/7
f 7/103/7 19/100/7 16/104/7
f 13/105/7 16/104/7 19/100/7
f 41/106/7 13/105/7 19/100/7
f 23/101/7 7/103/7 21/107/7
f 6/108/7 21/107/7 7/103/7
f 35/109/7 21/107/7 6/108/7

usemtl _defaultMat
usemap _defaultMat

f 7/75/4 8/74/4 16/73/4
f 9/75/4 16/74/4 8/73/4
f 13/110/8 41/61/8 11/111/8
f 45/110/8 11/61/8 41/111/8
f 35/112/8 6/113/8 39/52/8
f 5/112/8 39/113/8 6/52/8
f 23/109/5 24/107/5 17/108/5
f 18/109/5 17/107/5 24/108/5
f 31/43/4 32/114/4 25/56/4
f 27/43/4 25/114/4 32/56/4

usemtl tankco
usemap tankco

f 15/115/7 1/116/7 14/117/7
f 3/118/7 14/117/7 1/116/7

usemtl red
usemap red

f 23/101/7 31/95/7 17/102/7
f 25/96/7 17/102/7 31/95/7
f 25/32/3 27/34/3 17/119/3
f 18/48/3 17/119/3 27/34/3
f 24/120/2 18/121/2 32/72/2
f 27/73/2 32/72/2 18/121/2
f 23/122/1 24/56/1 31/42/1
f 32/43/1 31/42/1 24/56/1
