# Made using Asset Forge (www.assetforge.io) version 0.1 

mtllib roadPitStraight.mtl 

g roadPitStraight

v 0 0 0
v 0 0 10
v 0.8165262 0 0
v 0.8165262 0 10
v 8.451351 0.2 0
v 8.451351 0.2 10
v 10 0.2 0
v 10 0.2 10
v 8.451351 0.09999999 0
v 8.451351 0.09999999 10
v 10 0 0
v 10 0 10
v 0.8165262 0.2 0
v 0.8165262 0.2 10
v 1.548649 0.2 0
v 1.548649 0.2 10
v 1.548649 0.09999999 0
v 1.548649 0.09999999 10

vn 0 1 0
vn -1 0 0
vn 1 0 0

vt 0 0
vt 0 39.37008
vt -3.21467 0
vt -3.21467 39.37008
vt -33.27304 0
vt -33.27304 39.37008
vt -39.37008 0
vt -39.37008 39.37008
vt 0 0.7874016
vt 0 0.3937008
vt 39.37008 0.7874016
vt 39.37008 0.3937008
vt -39.37008 0.7874016
vt 39.37008 0
vt -6.097044 0
vt -6.097044 39.37008
vt -39.37008 0.3937008

usemtl grass
usemap grass

f 1/1/1 2/2/1 3/3/1
f 4/4/1 3/3/1 2/2/1

usemtl grey
usemap grey

f 5/5/1 6/6/1 7/7/1
f 8/8/1 7/7/1 6/6/1
f 5/9/2 9/10/2 6/11/2
f 10/12/2 6/11/2 9/10/2
f 11/1/3 7/9/3 12/7/3
f 8/13/3 12/7/3 7/9/3
f 13/9/2 3/1/2 14/11/2
f 4/14/2 14/11/2 3/1/2
f 13/3/1 14/4/1 15/15/1
f 16/16/1 15/15/1 14/4/1
f 17/10/3 15/9/3 18/17/3
f 16/13/3 18/17/3 15/9/3

usemtl road
usemap road

f 17/15/1 18/16/1 9/5/1
f 10/6/1 9/5/1 18/16/1
