# Made using Asset Forge (www.assetforge.io) version 0.1 

mtllib roadRamp.mtl 

g roadRamp

v 9.183473 0 0
v 9.183473 2.5 10
v 10 0 0
v 10 2.5 10
v 0 0 0
v 0 2.5 10
v 0.8165262 0 0
v 0.8165262 2.5 10
v 8.451351 0.2 0
v 8.451351 2.7 10
v 9.183473 0.2 0
v 9.183473 2.7 10
v 8.451351 0.09999999 0
v 8.451351 2.6 10
v 0.8165262 0.2 0
v 0.8165262 2.7 10
v 1.548649 0.2 0
v 1.548649 2.7 10
v 1.548649 0.09999999 0
v 1.548649 2.6 10

vn 0 0.9701425 -0.2425356
vn -1 0 0
vn 1 0 0

vt -36.15541 0
vt -36.15541 40.58175
vt -39.37008 0
vt -39.37008 40.58175
vt 0 0
vt 3.07747E-27 40.58175
vt -3.21467 2.437808E-28
vt -3.21467 40.58175
vt -33.27304 0.1909729
vt -33.27304 40.77272
vt -36.15541 0.1909729
vt -36.15541 40.77272
vt 0 0.7874016
vt 0 0.3937008
vt 39.37008 10.62992
vt 39.37008 10.23622
vt -39.37008 9.84252
vt -39.37008 10.62992
vt 39.37008 9.84252
vt -3.21467 0.1909729
vt -3.21467 40.77272
vt -6.097044 0.1909729
vt -6.097044 40.77272
vt -39.37008 10.23622
vt -6.097044 0.09548647
vt -6.097044 40.67723
vt -33.27304 0.09548647
vt -33.27304 40.67723

usemtl grass
usemap grass

f 1/1/1 2/2/1 3/3/1
f 4/4/1 3/3/1 2/2/1
f 5/5/1 6/6/1 7/7/1
f 8/8/1 7/7/1 6/6/1

usemtl grey
usemap grey

f 9/9/1 10/10/1 11/11/1
f 12/12/1 11/11/1 10/10/1
f 9/13/2 13/14/2 10/15/2
f 14/16/2 10/15/2 13/14/2
f 1/5/3 11/13/3 2/17/3
f 12/18/3 2/17/3 11/13/3
f 15/13/2 7/5/2 16/15/2
f 8/19/2 16/15/2 7/5/2
f 15/20/1 16/21/1 17/22/1
f 18/23/1 17/22/1 16/21/1
f 19/14/3 17/13/3 20/24/3
f 18/18/3 20/24/3 17/13/3

usemtl road
usemap road

f 19/25/1 20/26/1 13/27/1
f 14/28/1 13/27/1 20/26/1
