# Made using Asset Forge (www.assetforge.io) version 0.1 

mtllib roadStraightBridge.mtl 

g roadStraightBridge

v 9.183473 5 0
v 9.183473 5 10
v 10 5 0
v 10 5 10
v 0 5 0
v 0 5 10
v 0.8165262 5 0
v 0.8165262 5 10
v 10 0 0
v 10 0 10
v 0 0 10
v 1.548649 5.1 10
v 0.8165262 5.2 10
v 1.548649 5.2 10
v 8.451351 5.1 10
v 9.183473 5.2 10
v 8.451351 5.2 10
v 0 0 0
v 8.451351 5.1 0
v 9.183473 5.2 0
v 8.451351 5.2 0
v 1.548649 5.1 0
v 0.8165262 5.2 0
v 1.548649 5.2 0

vn 0 1 0
vn 1 0 0
vn 0 0 1
vn -1 0 0
vn 0 0 -1
vn 0 -1 0

vt -36.15541 0
vt -36.15541 39.37008
vt -39.37008 0
vt -39.37008 39.37008
vt 0 0
vt 0 39.37008
vt -3.21467 0
vt -3.21467 39.37008
vt 0 19.68504
vt -39.37008 19.68504
vt 39.37008 0
vt 39.37008 19.68504
vt 3.21467 19.68504
vt 36.15541 19.68504
vt 6.097044 20.07874
vt 3.21467 20.47244
vt 6.097044 20.47244
vt 33.27304 20.07874
vt 36.15541 20.47244
vt 33.27304 20.47244
vt -36.15541 19.68504
vt -3.21467 19.68504
vt -33.27304 20.07874
vt -36.15541 20.47244
vt -33.27304 20.47244
vt -6.097044 20.07874
vt -3.21467 20.47244
vt -6.097044 20.47244
vt -33.27304 0
vt -33.27304 39.37008
vt 0 20.47244
vt 0 20.07874
vt 39.37008 20.47244
vt 39.37008 20.07874
vt -39.37008 20.47244
vt -6.097044 0
vt -6.097044 39.37008
vt -39.37008 20.07874

usemtl wall
usemap wall

f 1/1/1 2/2/1 3/3/1
f 4/4/1 3/3/1 2/2/1
f 5/5/1 6/6/1 7/7/1
f 8/8/1 7/7/1 6/6/1
f 9/5/2 3/9/2 10/3/2
f 4/10/2 10/3/2 3/9/2
f 11/5/3 10/11/3 6/9/3
f 4/12/3 6/9/3 10/11/3
f 8/13/3 6/9/3 4/12/3
f 2/14/3 8/13/3 4/12/3
f 2/14/3 12/15/3 8/13/3
f 13/16/3 8/13/3 12/15/3
f 14/17/3 13/16/3 12/15/3
f 12/15/3 2/14/3 15/18/3
f 16/19/3 15/18/3 2/14/3
f 17/20/3 15/18/3 16/19/3
f 5/9/4 18/5/4 6/12/4
f 11/11/4 6/12/4 18/5/4
f 9/3/5 18/5/5 3/10/5
f 5/9/5 3/10/5 18/5/5
f 1/21/5 3/10/5 5/9/5
f 7/22/5 1/21/5 5/9/5
f 7/22/5 19/23/5 1/21/5
f 20/24/5 1/21/5 19/23/5
f 21/25/5 20/24/5 19/23/5
f 19/23/5 7/22/5 22/26/5
f 23/27/5 22/26/5 7/22/5
f 24/28/5 22/26/5 23/27/5

usemtl grey
usemap grey

f 21/29/1 17/30/1 20/1/1
f 16/2/1 20/1/1 17/30/1
f 21/31/4 19/32/4 17/33/4
f 15/34/4 17/33/4 19/32/4
f 1/9/2 20/31/2 2/10/2
f 16/35/2 2/10/2 20/31/2
f 23/31/4 7/9/4 13/33/4
f 8/12/4 13/33/4 7/9/4
f 23/7/1 13/8/1 24/36/1
f 14/37/1 24/36/1 13/8/1
f 22/32/2 24/31/2 12/38/2
f 14/35/2 12/38/2 24/31/2

usemtl road
usemap road

f 22/36/1 12/37/1 19/29/1
f 15/30/1 19/29/1 12/37/1

usemtl _defaultMat
usemap _defaultMat

f 11/28/6 18/26/6 10/27/6
f 9/28/6 10/26/6 18/27/6
