# Made using Asset Forge (www.assetforge.io) version 0.1 

mtllib roadStartPositions.mtl 

g roadStartPositions

v 9.183473 0 3.609557E-15
v 9.183473 0 20
v 10 0 0
v 10 0 20
v 0 0 0
v 0 0 20
v 0.8165262 0 3.609557E-15
v 0.8165262 0 20
v 8.451351 0.2 0
v 8.451351 0.2 20
v 9.183473 0.2 3.609557E-15
v 9.183473 0.2 20
v 8.451351 0.09999999 0
v 8.451351 0.09999999 20
v 0.8165262 0.2 3.609557E-15
v 0.8165262 0.2 20
v 1.548649 0.2 0
v 1.548649 0.2 20
v 1.548649 0.09999999 0
v 1.548649 0.09999999 20
v 7.433162 0.09999999 5.772267
v 7.433162 0.09999999 8.859558
v 7.761869 0.09999999 5.772267
v 7.761869 0.09999999 9.227733
v 6.018189 0.09999999 8.859558
v 5.689482 0.09999999 9.227733
v 6.018189 0.09999999 5.772267
v 5.689482 0.09999999 5.772267
v 7.433162 0.09999999 15.77227
v 7.433162 0.09999999 18.85956
v 7.761869 0.09999999 15.77227
v 7.761869 0.09999999 19.22773
v 6.018189 0.09999999 18.85956
v 5.689482 0.09999999 19.22773
v 6.018189 0.09999999 15.77227
v 5.689482 0.09999999 15.77227
v 3.981811 0.09999999 10.77227
v 3.981811 0.09999999 13.85956
v 4.310518 0.09999999 10.77227
v 4.310518 0.09999999 14.22773
v 2.566839 0.09999999 13.85956
v 2.238131 0.09999999 14.22773
v 2.566839 0.09999999 10.77227
v 2.238131 0.09999999 10.77227
v 3.981811 0.09999999 0.7722666
v 3.981811 0.09999999 3.859558
v 4.310518 0.09999999 0.7722666
v 4.310518 0.09999999 4.227733
v 2.566839 0.09999999 3.859558
v 2.238131 0.09999999 4.227733
v 2.566839 0.09999999 0.7722666
v 2.238131 0.09999999 0.7722666

vn 0 1 0
vn -1 0 0
vn 1 0 0

vt -36.15541 1.421085E-14
vt -36.15541 78.74016
vt -39.37008 0
vt -39.37008 78.74016
vt 0 0
vt 0 78.74016
vt -3.21467 1.421085E-14
vt -3.21467 78.74016
vt -33.27304 8.326673E-18
vt -33.27304 78.74016
vt -36.15541 1.421918E-14
vt -1.099267E-29 0.7874016
vt -1.099267E-29 0.3937008
vt 78.74016 0.7874016
vt 78.74016 0.3937008
vt -1.421085E-14 0
vt -1.421085E-14 0.7874016
vt -78.74016 0
vt -78.74016 0.7874016
vt 1.421085E-14 0.7874016
vt 1.421085E-14 0
vt 78.74016 0
vt -3.21467 1.420475E-14
vt -6.097044 -6.106227E-18
vt -6.097044 78.74016
vt -3.912467E-15 0.3937008
vt -3.912467E-15 0.7874016
vt -78.74016 0.3937008
vt -29.26442 22.72546
vt -29.26442 34.88015
vt -30.55854 22.72546
vt -30.55854 36.32966
vt -23.69366 34.88015
vt -22.39953 36.32966
vt -23.69366 22.72546
vt -22.39953 22.72546
vt -29.26442 62.09554
vt -29.26442 74.25023
vt -30.55854 62.09554
vt -30.55854 75.69974
vt -23.69366 74.25023
vt -22.39953 75.69974
vt -23.69366 62.09554
vt -22.39953 62.09554
vt -15.67642 42.4105
vt -15.67642 54.56519
vt -16.97054 42.4105
vt -16.97054 56.0147
vt -10.10566 54.56519
vt -8.811538 56.0147
vt -10.10566 42.4105
vt -8.811538 42.4105
vt -15.67642 3.04042
vt -15.67642 15.19511
vt -16.97054 3.04042
vt -16.97054 16.64462
vt -10.10566 15.19511
vt -8.811538 16.64462
vt -10.10566 3.04042
vt -8.811538 3.04042
vt -33.27304 0
vt -6.097044 0

usemtl grass
usemap grass

f 1/1/1 2/2/1 3/3/1
f 4/4/1 3/3/1 2/2/1
f 5/5/1 6/6/1 7/7/1
f 8/8/1 7/7/1 6/6/1

usemtl grey
usemap grey

f 9/9/1 10/10/1 11/11/1
f 12/2/1 11/11/1 10/10/1
f 9/12/2 13/13/2 10/14/2
f 14/15/2 10/14/2 13/13/2
f 1/16/3 11/17/3 2/18/3
f 12/19/3 2/18/3 11/17/3
f 15/20/2 7/21/2 16/14/2
f 8/22/2 16/14/2 7/21/2
f 15/23/1 16/8/1 17/24/1
f 18/25/1 17/24/1 16/8/1
f 19/26/3 17/27/3 20/28/3
f 18/19/3 20/28/3 17/27/3
f 21/29/1 22/30/1 23/31/1
f 23/31/1 22/30/1 24/32/1
f 22/30/1 25/33/1 24/32/1
f 24/32/1 25/33/1 26/34/1
f 25/33/1 27/35/1 26/34/1
f 28/36/1 26/34/1 27/35/1
f 29/37/1 30/38/1 31/39/1
f 31/39/1 30/38/1 32/40/1
f 30/38/1 33/41/1 32/40/1
f 32/40/1 33/41/1 34/42/1
f 33/41/1 35/43/1 34/42/1
f 36/44/1 34/42/1 35/43/1
f 37/45/1 38/46/1 39/47/1
f 39/47/1 38/46/1 40/48/1
f 38/46/1 41/49/1 40/48/1
f 40/48/1 41/49/1 42/50/1
f 41/49/1 43/51/1 42/50/1
f 44/52/1 42/50/1 43/51/1
f 45/53/1 46/54/1 47/55/1
f 47/55/1 46/54/1 48/56/1
f 46/54/1 49/57/1 48/56/1
f 48/56/1 49/57/1 50/58/1
f 49/57/1 51/59/1 50/58/1
f 52/60/1 50/58/1 51/59/1

usemtl road
usemap road

f 45/53/1 49/57/1 46/54/1
f 49/57/1 45/53/1 51/59/1
f 45/53/1 13/61/1 51/59/1
f 51/59/1 13/61/1 52/60/1
f 13/61/1 19/62/1 52/60/1
f 20/25/1 52/60/1 19/62/1
f 47/55/1 13/61/1 45/53/1
f 48/56/1 13/61/1 47/55/1
f 28/36/1 13/61/1 48/56/1
f 39/47/1 28/36/1 48/56/1
f 40/48/1 28/36/1 39/47/1
f 27/35/1 13/61/1 28/36/1
f 25/33/1 13/61/1 27/35/1
f 21/29/1 13/61/1 25/33/1
f 21/29/1 25/33/1 22/30/1
f 23/31/1 13/61/1 21/29/1
f 24/32/1 13/61/1 23/31/1
f 31/39/1 13/61/1 24/32/1
f 32/40/1 13/61/1 31/39/1
f 28/36/1 40/48/1 34/42/1
f 14/10/1 34/42/1 20/25/1
f 32/40/1 34/42/1 14/10/1
f 13/61/1 32/40/1 14/10/1
f 42/50/1 20/25/1 34/42/1
f 40/48/1 42/50/1 34/42/1
f 52/60/1 20/25/1 42/50/1
f 50/58/1 52/60/1 42/50/1
f 44/52/1 50/58/1 42/50/1
f 31/39/1 24/32/1 29/37/1
f 29/37/1 24/32/1 33/41/1
f 29/37/1 33/41/1 30/38/1
f 33/41/1 24/32/1 35/43/1
f 35/43/1 24/32/1 36/44/1
f 36/44/1 26/34/1 34/42/1
f 26/34/1 28/36/1 34/42/1
f 26/34/1 36/44/1 24/32/1
f 50/58/1 44/52/1 48/56/1
f 43/51/1 48/56/1 44/52/1
f 41/49/1 48/56/1 43/51/1
f 37/45/1 48/56/1 41/49/1
f 37/45/1 41/49/1 38/46/1
f 39/47/1 48/56/1 37/45/1
