# Made using Asset Forge (www.assetforge.io) version 0.1 

mtllib roadStraight.mtl 

g roadStraight

v 9.183473 0 0
v 9.183473 0 10
v 10 0 0
v 10 0 10
v 0 0 0
v 0 0 10
v 0.8165262 0 0
v 0.8165262 0 10
v 8.451351 0.2 0
v 8.451351 0.2 10
v 9.183473 0.2 0
v 9.183473 0.2 10
v 8.451351 0.09999999 0
v 8.451351 0.09999999 10
v 0.8165262 0.2 0
v 0.8165262 0.2 10
v 1.548649 0.2 0
v 1.548649 0.2 10
v 1.548649 0.09999999 0
v 1.548649 0.09999999 10

vn 0 1 0
vn -1 0 0
vn 1 0 0

vt -36.15541 0
vt -36.15541 39.37008
vt -39.37008 0
vt -39.37008 39.37008
vt 0 0
vt 0 39.37008
vt -3.21467 0
vt -3.21467 39.37008
vt -33.27304 0
vt -33.27304 39.37008
vt 0 0.7874016
vt 0 0.3937008
vt 39.37008 0.7874016
vt 39.37008 0.3937008
vt -39.37008 0.7874016
vt 39.37008 0
vt -6.097044 0
vt -6.097044 39.37008
vt -39.37008 0.3937008

usemtl grass
usemap grass

f 1/1/1 2/2/1 3/3/1
f 4/4/1 3/3/1 2/2/1
f 5/5/1 6/6/1 7/7/1
f 8/8/1 7/7/1 6/6/1

usemtl grey
usemap grey

f 9/9/1 10/10/1 11/1/1
f 12/2/1 11/1/1 10/10/1
f 9/11/2 13/12/2 10/13/2
f 14/14/2 10/13/2 13/12/2
f 1/5/3 11/11/3 2/3/3
f 12/15/3 2/3/3 11/11/3
f 15/11/2 7/5/2 16/13/2
f 8/16/2 16/13/2 7/5/2
f 15/7/1 16/8/1 17/17/1
f 18/18/1 17/17/1 16/8/1
f 19/12/3 17/11/3 20/19/3
f 18/15/3 20/19/3 17/11/3

usemtl road
usemap road

f 19/17/1 20/18/1 13/9/1
f 14/10/1 13/9/1 20/18/1
