# Made using Asset Forge (www.assetforge.io) version 0.1 

mtllib tentClosed.mtl 

g tentClosed

v 0 5.2 0
v 0 4.3 0
v 0 5.2 10
v 0 4.3 0.2
v 0 4.3 9.799999
v 0 4.3 10
v 0.2 4.3 10
v 9.799999 4.3 10
v 10 4.3 10
v 10 5.2 10
v 10 5.2 0
v 10 4.3 0
v 9.799999 4.3 0
v 0.2 4.3 0
v 10 4.3 0.2
v 10 4.3 9.799999
v 0.2 4.3 0.2
v 1.4 4.3 0.2
v 8.6 4.3 0.2
v 9.799999 4.3 0.2
v 9.799999 4.3 9.799999
v 0.2 4.3 9.799999
v 4.525 7 4.525
v 4.525 7 5.475
v 5.475 7 4.525
v 5.475 7 5.475
v 0.2 0 0.2
v 0.2 0 9.799999
v 9.799999 0 9.799999
v 9.799999 0 0.2
v 1.4 0 0.2
v 8.6 0 0.2
v 0 0 0.2
v 0 0 0
v 0.2 0 0
v 9.799999 0 0
v 10 0 0.2
v 10 0 0
v 9.799999 0 10
v 10 0 10
v 10 0 9.799999
v 0 0 9.799999
v 0 0 10
v 0.2 0 10

vn -1 0 0
vn 0 0 1
vn 0 1 0
vn 0 0 -1
vn 1 0 0
vn 0 -1 0
vn 0 0.9291831 0.3696198
vn 0 0.9291831 -0.3696198
vn 0.3696198 0.9291831 0
vn -0.3696198 0.9291831 0

vt 0 20.47244
vt 0 16.92913
vt 39.37008 20.47244
vt 0.7874016 16.92913
vt 38.58268 16.92913
vt 39.37008 16.92913
vt 0 0
vt 0 39.37008
vt -39.37008 0
vt -39.37008 39.37008
vt -39.37008 16.92913
vt -38.58268 16.92913
vt -39.37008 20.47244
vt -0.7874016 16.92913
vt 0.7874016 0.7874016
vt 0.7874016 0
vt 5.511811 0.7874016
vt 38.58268 0
vt 33.85827 0.7874016
vt 38.58268 0.7874016
vt 38.58268 38.58268
vt 39.37008 38.58268
vt 39.37008 0.7874016
vt 0.7874016 38.58268
vt 0 0.7874016
vt 0 38.58268
vt 38.58268 39.37008
vt 0.7874016 39.37008
vt -17.81496 17.81496
vt -17.81496 21.55512
vt -21.55512 17.81496
vt -21.55512 21.55512
vt 0 -29.01499
vt 39.37008 -29.01499
vt 17.81496 -9.842279
vt 21.55512 -9.842279
vt 0 7.567019
vt -17.81496 26.73973
vt -39.37008 7.567019
vt -21.55512 26.73973
vt -17.81496 -9.842279
vt -21.55512 -9.842279
vt -6.924754E-16 -29.01499
vt -39.37008 -29.01499
vt -6.162976E-33 7.567019
vt 39.37008 7.567019
vt 17.81496 26.73973
vt 21.55512 26.73973
vt -0.7874016 0
vt -38.58268 0
vt -5.511811 0
vt -5.511811 16.92913
vt -33.85827 0
vt -33.85827 16.92913
vt 39.37008 0
vt 39.37008 39.37008

usemtl grass
usemap grass

f 1/1/1 2/2/1 3/3/1
f 4/4/1 3/3/1 2/2/1
f 5/5/1 3/3/1 4/4/1
f 6/6/1 3/3/1 5/5/1
f 6/2/2 7/4/2 3/1/2
f 8/5/2 3/1/2 7/4/2
f 9/6/2 3/1/2 8/5/2
f 10/3/2 3/1/2 9/6/2
f 1/7/3 3/8/3 11/9/3
f 10/10/3 11/9/3 3/8/3
f 12/11/4 13/12/4 11/13/4
f 14/14/4 11/13/4 13/12/4
f 2/2/4 11/13/4 14/14/4
f 1/1/4 11/13/4 2/2/4
f 12/2/5 11/1/5 15/14/5
f 10/13/5 15/14/5 11/1/5
f 16/12/5 15/14/5 10/13/5
f 9/11/5 16/12/5 10/13/5
f 17/15/6 14/16/6 18/17/6
f 13/18/6 18/17/6 14/16/6
f 19/19/6 18/17/6 13/18/6
f 20/20/6 19/19/6 13/18/6
f 18/17/6 21/21/6 17/15/6
f 19/19/6 21/21/6 18/17/6
f 20/20/6 21/21/6 19/19/6
f 21/21/6 20/20/6 16/22/6
f 15/23/6 16/22/6 20/20/6
f 22/24/6 17/15/6 21/21/6
f 17/15/6 22/24/6 4/25/6
f 5/26/6 4/25/6 22/24/6
f 21/21/6 8/27/6 22/24/6
f 7/28/6 22/24/6 8/27/6
f 23/29/3 24/30/3 25/31/3
f 26/32/3 25/31/3 24/30/3
f 3/33/7 10/34/7 24/35/7
f 26/36/7 24/35/7 10/34/7
f 1/37/8 23/38/8 11/39/8
f 25/40/8 11/39/8 23/38/8
f 25/41/9 26/42/9 11/43/9
f 10/44/9 11/43/9 26/42/9
f 1/45/10 3/46/10 23/47/10
f 24/48/10 23/47/10 3/46/10
f 17/4/1 27/16/1 22/5/1
f 28/18/1 22/5/1 27/16/1
f 22/5/5 27/16/5 17/4/5
f 27/16/5 22/5/5 28/18/5
f 28/16/2 29/18/2 22/4/2
f 21/5/2 22/4/2 29/18/2
f 22/4/4 29/18/4 28/16/4
f 29/18/4 22/4/4 21/5/4
f 30/49/5 20/14/5 29/50/5
f 21/12/5 29/50/5 20/14/5
f 29/50/1 20/14/1 30/49/1
f 20/14/1 29/50/1 21/12/1
f 31/51/4 27/49/4 18/52/4
f 17/14/4 18/52/4 27/49/4
f 18/52/2 27/49/2 31/51/2
f 27/49/2 18/52/2 17/14/2
f 30/50/4 32/53/4 20/12/4
f 19/54/4 20/12/4 32/53/4
f 20/12/2 32/53/2 30/50/2
f 32/53/2 20/12/2 19/54/2

usemtl grey
usemap grey

f 33/25/6 34/7/6 27/15/6
f 35/16/6 27/15/6 34/7/6
f 35/7/5 14/2/5 27/49/5
f 17/14/5 27/49/5 14/2/5
f 35/49/4 34/7/4 14/14/4
f 2/2/4 14/14/4 34/7/4
f 4/25/6 2/7/6 17/15/6
f 14/16/6 17/15/6 2/7/6
f 2/2/1 34/7/1 4/4/1
f 33/16/1 4/4/1 34/7/1
f 33/7/2 27/16/2 4/2/2
f 17/4/2 4/2/2 27/16/2
f 30/20/6 36/18/6 37/23/6
f 38/55/6 37/23/6 36/18/6
f 30/18/2 37/55/2 20/5/2
f 15/6/2 20/5/2 37/55/2
f 20/20/6 13/18/6 15/23/6
f 12/55/6 15/23/6 13/18/6
f 38/7/5 12/2/5 37/49/5
f 15/14/5 37/49/5 12/2/5
f 13/2/1 36/7/1 20/4/1
f 30/16/1 20/4/1 36/7/1
f 38/9/4 36/50/4 12/11/4
f 13/12/4 12/11/4 36/50/4
f 21/5/1 29/18/1 8/6/1
f 39/55/1 8/6/1 29/18/1
f 39/27/6 29/21/6 40/56/6
f 41/22/6 40/56/6 29/21/6
f 8/27/6 21/21/6 9/56/6
f 16/22/6 9/56/6 21/21/6
f 41/9/4 29/50/4 16/11/4
f 21/12/4 16/11/4 29/50/4
f 39/18/2 40/55/2 8/5/2
f 9/6/2 8/5/2 40/55/2
f 41/50/5 16/12/5 40/9/5
f 9/11/5 40/9/5 16/12/5
f 5/5/1 42/18/1 6/6/1
f 43/55/1 6/6/1 42/18/1
f 43/8/6 42/26/6 44/28/6
f 28/24/6 44/28/6 42/26/6
f 6/8/6 5/26/6 7/28/6
f 22/24/6 7/28/6 5/26/6
f 28/49/4 42/7/4 22/14/4
f 5/2/4 22/14/4 42/7/4
f 43/7/2 44/16/2 6/2/2
f 7/4/2 6/2/2 44/16/2
f 28/50/5 22/12/5 44/9/5
f 7/11/5 44/9/5 22/12/5
